<?xml version="1.0" encoding="UTF-8"?>
<!DOCTYPE svg PUBLIC "-//W3C//DTD SVG 1.1//EN" "http://www.w3.org/Graphics/SVG/1.1/DTD/svg11.dtd">
<!-- Creator: CorelDRAW X7 -->
<svg xmlns="http://www.w3.org/2000/svg" xml:space="preserve" width="7.34409in" height="5.534in" version="1.1" style="shape-rendering:geometricPrecision; text-rendering:geometricPrecision; image-rendering:optimizeQuality; fill-rule:evenodd; clip-rule:evenodd"
viewBox="0 0 7486 5641"
 xmlns:xlink="http://www.w3.org/1999/xlink">
 <defs>
  <style type="text/css">
   <![CDATA[
    .str0 {stroke:#FEFEFE;stroke-width:42.4702}
    .str1 {stroke:#FEFEFE;stroke-width:169.885}
    .fil1 {fill:none}
    .fil2 {fill:#FEFEFE}
    .fil0 {fill:#06BDF6}
    .fil3 {fill:#FEFEFE;fill-rule:nonzero}
    .fil4 {fill:#06BDF6;fill-rule:nonzero}
   ]]>
  </style>
 </defs>
 <g id="Layer_x0020_1">
  <metadata id="CorelCorpID_0Corel-Layer"/>
  <path class="fil0" d="M3731 0c1430,0 2589,900 2589,2010 0,1110 -1159,2010 -2589,2010 -1430,0 -2589,-900 -2589,-2010 0,-1110 1159,-2010 2589,-2010z"/>
  <path class="fil1 str0" d="M3731 136c1333,0 2414,839 2414,1874 0,1035 -1081,1874 -2414,1874 -1333,0 -2414,-839 -2414,-1874 0,-1035 1081,-1874 2414,-1874z"/>
  <path class="fil1 str0" d="M3731 136c1333,0 2414,839 2414,1874 0,1035 -1081,1874 -2414,1874 -1333,0 -2414,-839 -2414,-1874 0,-1035 1081,-1874 2414,-1874z"/>
  <path class="fil1 str0" d="M3731 988c715,0 1295,450 1295,1005 0,555 -580,1006 -1295,1006 -715,0 -1295,-451 -1295,-1006 0,-555 580,-1005 1295,-1005z"/>
  <path class="fil2" d="M3731 1056c666,0 1207,420 1207,937 0,517 -541,937 -1207,937 -666,0 -1206,-420 -1206,-937 0,-517 540,-937 1206,-937z"/>
  <g id="_726684384">
   <polygon class="fil3 str1" points="85,4147 461,4147 461,4704 822,4147 1205,4147 844,4668 1242,5532 829,5532 589,4980 461,5195 461,5532 85,5532 "/>
   <path class="fil3 str1" d="M1673 4849l-327 -39c13,-64 31,-114 54,-151 23,-36 56,-68 100,-95 31,-19 74,-34 129,-45 54,-11 113,-16 177,-16 102,0 184,6 246,19 62,13 114,40 155,80 29,29 52,69 69,120 17,52 25,101 25,148l0 441c0,47 2,83 8,110 5,27 17,60 34,102l-319 0c-13,-26 -21,-45 -25,-58 -4,-14 -8,-35 -12,-63 -45,48 -89,82 -133,103 -61,27 -131,41 -211,41 -106,0 -186,-28 -241,-83 -56,-55 -83,-123 -83,-204 0,-76 20,-138 60,-187 39,-49 113,-86 219,-109 128,-29 211,-49 249,-61 38,-12 78,-27 121,-46 0,-47 -9,-79 -26,-98 -17,-19 -48,-28 -91,-28 -56,0 -98,9 -126,30 -22,16 -39,45 -52,89zm295 199c-47,19 -96,36 -147,51 -69,20 -113,41 -132,61 -19,21 -28,45 -28,71 0,31 9,56 28,75 19,19 46,29 82,29 38,0 74,-11 107,-32 32,-21 55,-46 69,-76 14,-30 21,-69 21,-117l0 -62z"/>
   <polygon class="fil3 str1" points="2387,4518 2805,4518 2943,5077 3120,4518 3411,4518 3037,5532 2753,5532 "/>
   <path class="fil3 str1" d="M4477 5097l-686 0c6,62 21,109 45,140 32,44 76,66 129,66 34,0 66,-9 96,-29 19,-11 73,-59 95,-89l345 2c-126,249 -271,345 -543,345 -118,0 -211,-19 -279,-57 -68,-38 -124,-98 -169,-181 -44,-83 -66,-180 -66,-292 0,-159 44,-288 134,-387 89,-98 212,-147 370,-147 127,0 228,22 302,66 74,44 130,108 169,192 39,83 58,193 58,327l0 44zm-347 -186c-7,-76 -25,-130 -54,-163 -29,-33 -67,-49 -114,-49 -55,0 -98,25 -131,74 -20,31 -34,77 -39,138l338 0z"/>
   <path class="fil3 str1" d="M4641 4520l326 0 0 166c31,-72 64,-122 97,-149 33,-27 74,-40 123,-40 52,0 40,-15 101,20l-7 342c-41,-19 -109,-20 -133,-20 -45,0 -98,15 -106,64 -26,159 -41,451 -30,635l-371 -2 0 -1016z"/>
   <path class="fil3 str1" d="M5400 4130l387 0 0 302 -387 0 0 -302zm0 392l387 0 0 1034 -387 0 0 -1034z"/>
   <path class="fil3 str1" d="M5974 4155l360 0 0 253c0,26 8,54 -4,74 -82,127 -104,130 -195,273l-132 -10 177 -269 -206 0 0 -321z"/>
   <path class="fil3 str1" d="M6418 5217l354 0c15,45 35,77 61,97 25,19 60,29 103,29 47,0 84,-11 109,-33 21,-17 31,-37 31,-62 0,-27 -14,-49 -40,-64 -19,-11 -69,-24 -151,-40 -121,-23 -206,-45 -253,-65 -48,-19 -87,-53 -120,-100 -32,-48 -49,-102 -49,-162 0,-67 18,-124 53,-171 35,-48 83,-84 144,-108 62,-23 144,-35 247,-35 109,0 190,9 242,27 52,19 95,47 130,85 34,39 65,107 88,173l-329 2c-13,-31 -27,-39 -48,-54 -27,-20 -60,-30 -99,-30 -40,0 -68,8 -86,23 -18,16 -27,34 -27,56 0,25 11,44 34,56 22,13 72,24 149,34 117,15 203,35 260,61 57,26 101,63 131,111 30,48 45,100 45,158 0,58 -16,114 -48,169 -32,55 -82,98 -151,131 -68,33 -162,49 -280,49 -167,0 -286,-26 -357,-79 -71,-52 -123,-161 -143,-258z"/>
  </g>
  <g id="_726721280">
   <polygon class="fil4" points="79,4143 455,4143 455,4700 816,4143 1199,4143 838,4663 1236,5528 824,5528 584,4976 455,5190 455,5528 79,5528 "/>
   <path class="fil4" d="M1667 4844l-326 -38c12,-64 30,-115 53,-151 23,-37 56,-69 100,-95 31,-20 74,-35 129,-46 55,-10 114,-16 178,-16 102,0 183,7 246,20 61,12 113,39 154,80 29,28 52,68 69,120 17,51 25,100 25,148l0 440c0,47 3,84 8,110 5,27 17,61 35,102l-320 0c-13,-25 -21,-45 -25,-58 -4,-13 -8,-34 -12,-63 -44,48 -89,82 -133,103 -60,28 -130,41 -210,41 -106,0 -187,-27 -242,-83 -55,-55 -83,-123 -83,-204 0,-75 20,-138 60,-187 40,-49 113,-85 220,-109 127,-29 210,-49 248,-61 38,-11 79,-26 121,-45 0,-47 -8,-80 -26,-99 -17,-19 -47,-28 -91,-28 -56,0 -97,10 -125,30 -22,16 -40,46 -53,89zm295 200c-47,19 -96,35 -147,50 -69,21 -113,41 -131,62 -20,20 -29,44 -29,71 0,30 9,55 28,74 19,19 46,29 83,29 38,0 73,-11 106,-31 33,-21 56,-46 70,-77 13,-30 20,-69 20,-117l0 -61z"/>
   <polygon class="fil4" points="2381,4513 2799,4513 2937,5073 3114,4513 3405,4513 3031,5528 2748,5528 "/>
   <path class="fil4" d="M4471 5092l-686 0c6,63 21,110 45,140 33,44 76,66 129,66 34,0 66,-9 96,-28 19,-12 74,-60 95,-90l346 2c-126,249 -272,346 -544,346 -118,0 -211,-19 -279,-57 -67,-38 -124,-99 -168,-181 -45,-83 -67,-181 -67,-293 0,-159 45,-288 134,-386 89,-99 213,-148 370,-148 128,0 228,22 302,66 74,45 131,108 169,192 39,84 58,193 58,327l0 44zm-347 -186c-7,-76 -25,-130 -54,-163 -29,-32 -67,-49 -114,-49 -54,0 -98,25 -130,75 -21,30 -34,76 -40,137l338 0z"/>
   <path class="fil4" d="M4635 4516l326 0 0 165c32,-72 64,-121 97,-148 34,-27 75,-41 124,-41 51,0 40,-15 100,21l-7 342c-41,-19 -108,-20 -132,-20 -46,0 -98,15 -106,63 -27,159 -42,451 -30,635l-372 -2 0 -1015z"/>
   <path class="fil4" d="M5394 4125l388 0 0 303 -388 0 0 -303zm0 393l388 0 0 1033 -388 0 0 -1033z"/>
   <path class="fil4" d="M5968 4150l360 0 0 253c0,26 8,54 -4,74 -81,128 -104,130 -194,273l-132 -9 176 -269 -206 0 0 -322z"/>
   <path class="fil4" d="M6412 5213l355 -1c14,46 34,78 60,97 26,20 60,29 103,29 47,0 84,-11 110,-33 20,-16 30,-37 30,-61 0,-28 -13,-50 -40,-65 -18,-10 -69,-24 -150,-39 -122,-24 -206,-45 -254,-65 -47,-20 -87,-54 -120,-101 -32,-47 -48,-101 -48,-162 0,-66 17,-123 52,-171 35,-48 83,-84 145,-107 61,-24 144,-36 247,-36 109,0 189,9 241,28 52,18 95,46 130,85 35,38 65,107 88,173l-328 2c-13,-32 -28,-40 -48,-55 -27,-20 -61,-30 -100,-30 -39,0 -68,8 -86,24 -18,15 -27,34 -27,56 0,25 11,43 34,56 23,12 73,24 149,34 117,14 204,35 261,60 56,26 100,63 130,111 30,48 45,101 45,158 0,58 -16,115 -48,170 -32,54 -82,98 -150,131 -69,32 -162,48 -281,48 -167,0 -286,-26 -357,-78 -70,-53 -123,-162 -143,-258z"/>
  </g>
  <path class="fil3" d="M2026 1619c5,2 9,4 12,5 4,2 7,4 9,5 2,2 4,3 5,5 2,2 3,4 5,7 1,3 2,8 4,16 1,7 2,16 1,26 0,10 -1,22 -3,34 -2,12 -6,25 -11,39 -9,26 -22,48 -38,66 -16,18 -35,32 -56,41 -22,9 -46,13 -73,12 -27,-1 -57,-8 -88,-20 -33,-12 -60,-27 -82,-45 -23,-18 -39,-38 -51,-60 -11,-22 -17,-45 -18,-70 -1,-25 4,-51 13,-77 4,-11 9,-21 14,-30 6,-9 11,-18 17,-25 6,-7 12,-14 19,-19 6,-5 11,-9 15,-10 3,-2 6,-3 8,-3 2,-1 5,-1 8,0 3,0 6,1 10,2 4,1 9,3 14,5 6,2 11,4 15,6 4,2 7,4 9,6 3,2 4,3 5,5 0,2 0,4 0,6 -1,3 -4,6 -10,9 -5,3 -11,8 -18,13 -7,6 -14,13 -21,22 -7,8 -13,20 -18,33 -6,16 -7,30 -6,45 2,14 7,27 16,40 8,13 20,24 35,34 14,11 32,20 53,27 22,9 42,14 61,15 18,1 34,0 48,-5 13,-4 25,-12 35,-22 10,-10 17,-23 23,-38 5,-14 8,-26 8,-38 1,-11 0,-21 -1,-29 -1,-9 -3,-16 -4,-22 -1,-6 -2,-10 -1,-13 1,-2 2,-3 3,-4 1,-1 3,-1 6,-1 3,0 6,0 11,2 4,1 10,3 17,5zm266 -327c7,3 13,5 17,7 4,3 6,5 6,8 1,4 -1,8 -4,13 -3,5 -7,11 -14,20 -6,8 -11,15 -15,20 -4,4 -7,7 -10,9 -2,2 -5,3 -7,3 -2,0 -5,0 -7,-1l-82 -28 -92 124 48 68c2,3 3,5 4,7 1,3 1,5 0,8 -1,4 -3,7 -6,12 -3,5 -7,11 -12,18 -6,8 -11,14 -15,18 -4,4 -7,6 -10,6 -4,0 -7,-1 -10,-4 -3,-3 -7,-8 -11,-15l-215 -318c-3,-3 -4,-6 -5,-8 -1,-3 0,-6 1,-10 1,-4 4,-8 7,-14 4,-5 9,-12 16,-21 7,-10 13,-17 18,-23 4,-6 8,-10 12,-13 3,-2 6,-3 9,-4 3,1 7,1 11,3l366 115zm-353 -29l0 0 105 150 69 -92 -174 -58zm608 -318c14,20 25,41 30,61 6,20 7,40 4,60 -4,19 -12,38 -24,56 -13,18 -30,36 -53,52 -20,15 -41,26 -61,33 -20,7 -40,9 -59,7 -19,-2 -38,-9 -55,-20 -18,-12 -34,-28 -50,-49l-147 -200c-1,-2 -1,-4 -1,-6 0,-2 1,-5 3,-7 2,-3 5,-6 8,-10 4,-3 10,-8 16,-13 6,-4 12,-8 17,-10 4,-3 8,-5 11,-6 3,-1 6,-1 8,-1 2,1 4,2 5,4l143 195c10,13 20,23 30,30 10,7 21,12 31,14 11,2 22,1 32,-2 11,-3 22,-8 32,-16 10,-8 19,-16 25,-26 6,-9 9,-19 11,-29 1,-11 0,-22 -4,-33 -3,-11 -9,-23 -18,-34l-146 -199c-1,-2 -1,-4 -1,-6 0,-2 1,-4 2,-7 2,-3 5,-6 9,-10 4,-3 10,-8 16,-12 6,-5 12,-9 16,-11 5,-3 9,-5 12,-6 3,-1 6,-1 8,0 2,0 3,2 5,3l145 198zm288 10c1,3 1,7 0,9 0,3 -2,6 -5,8 -3,3 -7,6 -13,9 -6,3 -13,7 -23,12 -7,4 -14,7 -19,10 -6,2 -10,4 -14,6 -4,1 -8,2 -10,2 -3,1 -5,1 -8,0 -2,0 -4,-1 -5,-2 -2,-1 -4,-3 -6,-5l-269 -271c-6,-6 -10,-11 -12,-14 -3,-4 -3,-7 -2,-11 2,-3 5,-6 10,-9 6,-4 14,-8 24,-13 9,-4 16,-7 21,-9 5,-2 9,-3 12,-4 3,0 6,0 8,2 2,1 4,3 6,5l229 239 0 0 -51 -325c-1,-3 -1,-6 -1,-9 0,-2 1,-5 3,-7 3,-3 6,-5 11,-8 5,-3 12,-7 21,-11 8,-5 15,-8 21,-9 5,-2 9,-3 11,-1 3,1 5,4 7,8 1,4 2,10 3,18l51 380zm365 -145c1,6 3,11 3,15 1,4 1,8 1,11 0,2 -1,5 -2,6 -1,2 -3,3 -5,3l-196 60c-7,2 -13,2 -19,-1 -5,-3 -9,-8 -12,-17l-104 -341c-2,-9 -2,-16 1,-22 4,-5 9,-9 15,-11l196 -59c1,0 3,0 5,0 2,1 3,2 5,4 2,3 4,6 5,9 2,4 4,9 6,15 1,6 3,11 3,15 1,4 1,7 1,10 0,3 -1,5 -2,7 -1,1 -3,2 -4,3l-140 42 29 95 118 -35c1,-1 3,-1 5,0 2,1 4,2 5,4 2,2 4,5 6,9 1,3 3,8 5,14 1,6 3,10 3,14 1,4 1,8 1,10 -1,3 -1,5 -3,6 -1,2 -2,3 -4,3l-118 36 34 110 140 -42c2,-1 4,-1 6,0 2,1 3,2 5,4 2,2 4,5 5,9 2,4 4,9 6,14zm367 -33c1,3 0,5 0,6 -1,2 -3,4 -6,5 -3,1 -7,3 -13,4 -6,1 -14,3 -25,4 -8,1 -15,2 -21,2 -5,1 -9,0 -12,0 -4,-1 -6,-2 -7,-4 -2,-1 -3,-3 -4,-6l-49 -85c-6,-10 -12,-19 -17,-26 -5,-7 -11,-13 -17,-18 -6,-5 -12,-8 -19,-10 -7,-1 -15,-2 -24,-1l-26 4 22 155c0,2 -1,4 -2,6 -1,1 -3,3 -6,5 -3,1 -7,2 -12,4 -5,1 -12,2 -20,4 -8,1 -14,1 -20,1 -5,0 -10,0 -13,0 -3,-1 -5,-2 -7,-4 -1,-1 -2,-3 -3,-5l-50 -368c-1,-9 0,-16 4,-21 4,-4 10,-7 17,-8l105 -15c10,-1 19,-2 26,-3 7,0 13,0 19,-1 17,0 32,2 46,6 13,4 25,10 36,18 10,8 19,17 25,29 7,12 11,26 13,42 2,13 2,26 0,37 -2,12 -6,23 -11,32 -6,10 -13,19 -22,27 -9,7 -19,14 -31,20 6,2 13,5 18,8 6,4 12,8 18,13 5,6 11,12 16,19 5,7 10,15 16,24l45 75c4,8 7,13 8,17 2,3 3,6 3,8zm-144 -260c-2,-13 -6,-24 -14,-33 -7,-8 -18,-13 -32,-15 -5,0 -9,-1 -15,0 -5,0 -13,0 -22,2l-37 5 16 114 42 -5c12,-2 21,-5 30,-9 8,-4 15,-9 20,-15 5,-6 9,-12 11,-20 2,-7 2,-15 1,-24zm327 116l3 144c0,2 -1,4 -2,6 -2,1 -4,3 -7,4 -3,1 -7,2 -13,3 -5,0 -12,1 -20,1 -8,0 -15,0 -20,0 -5,-1 -10,-2 -13,-3 -3,-1 -5,-2 -7,-4 -1,-1 -2,-3 -2,-5l-3 -144 -116 -221c-4,-7 -7,-14 -8,-18 -1,-4 -1,-7 2,-10 2,-2 7,-3 13,-4 7,-1 16,-1 27,-1 10,-1 18,0 23,0 6,0 11,1 14,2 3,1 6,3 8,4 1,2 3,5 4,8l48 99c5,10 9,20 14,31 4,10 9,21 14,33l0 0c4,-11 8,-22 12,-33 4,-11 8,-21 12,-31l43 -101c1,-3 2,-6 4,-8 1,-2 3,-4 7,-5 3,-1 7,-2 12,-3 6,0 13,-1 22,-1 12,0 22,0 28,0 7,1 11,2 14,4 2,2 3,6 2,10 -1,5 -4,10 -7,18l-108 225zm606 118c-5,21 -13,39 -24,53 -11,14 -25,25 -40,32 -16,8 -33,13 -53,14 -19,2 -38,0 -59,-4 -14,-3 -26,-7 -38,-12 -11,-5 -21,-10 -29,-15 -8,-6 -15,-11 -21,-16 -5,-4 -9,-9 -11,-12 -2,-3 -3,-7 -3,-13 0,-5 1,-12 3,-22 2,-6 3,-11 4,-16 2,-4 3,-7 5,-10 1,-2 3,-4 5,-5 1,0 3,-1 5,0 3,0 7,3 12,8 4,4 10,9 17,15 8,6 17,12 27,18 11,6 24,11 39,14 10,2 19,3 27,2 9,0 16,-2 23,-5 6,-3 11,-8 16,-14 4,-5 7,-12 9,-20 1,-9 1,-17 -3,-25 -3,-7 -8,-14 -15,-21 -7,-7 -15,-14 -24,-20 -9,-7 -19,-14 -28,-21 -10,-7 -19,-15 -28,-24 -9,-8 -16,-18 -22,-28 -6,-11 -10,-22 -13,-35 -2,-13 -1,-28 2,-45 4,-19 12,-35 22,-48 10,-13 22,-23 36,-30 15,-7 30,-11 48,-12 17,-1 35,0 53,4 10,2 19,5 28,9 9,3 18,7 25,11 8,5 15,9 20,13 6,5 10,8 11,11 2,2 3,4 3,6 1,2 1,4 1,6 0,3 0,6 -1,9 0,4 -1,8 -2,14 -2,6 -3,11 -4,15 -1,4 -3,7 -4,10 -1,2 -3,4 -4,5 -2,1 -4,1 -6,0 -2,0 -6,-2 -10,-6 -4,-4 -10,-9 -16,-14 -7,-5 -14,-9 -23,-14 -9,-5 -19,-9 -31,-11 -8,-2 -16,-3 -23,-2 -7,1 -14,2 -19,5 -5,3 -9,7 -13,12 -3,5 -5,10 -7,16 -2,9 -1,17 3,25 3,7 8,14 15,21 7,7 16,14 25,20 9,7 19,14 28,21 10,8 19,15 28,24 9,9 17,18 23,29 6,10 10,22 13,35 2,13 1,27 -2,43zm363 -139c-2,5 -4,10 -6,14 -2,4 -4,7 -6,9 -2,2 -4,4 -5,4 -2,1 -4,1 -6,1l-97 -34 -108 311c0,2 -2,4 -4,5 -1,1 -4,2 -7,2 -4,0 -8,-1 -13,-2 -6,-1 -12,-3 -20,-6 -7,-2 -13,-5 -18,-7 -5,-3 -9,-5 -12,-7 -2,-2 -4,-4 -5,-6 0,-2 0,-4 0,-6l109 -311 -97 -34c-2,-1 -3,-2 -4,-4 -1,-1 -2,-3 -2,-6 0,-3 0,-7 1,-11 1,-4 3,-9 5,-15 2,-6 4,-11 6,-15 1,-4 3,-7 5,-9 2,-2 4,-4 6,-4 1,-1 3,-1 5,0l272 94c2,1 4,2 5,4 1,1 1,4 2,6 0,3 -1,7 -2,11 -1,5 -2,10 -4,16zm303 351c-17,30 -35,54 -55,74 -20,19 -42,33 -66,41 -23,9 -48,11 -74,8 -27,-3 -54,-12 -82,-28 -28,-15 -50,-32 -67,-51 -17,-18 -28,-39 -34,-62 -5,-22 -5,-47 0,-74 6,-27 17,-56 35,-87 16,-29 34,-53 54,-73 20,-19 41,-32 65,-41 23,-8 48,-11 75,-7 26,3 53,12 82,28 27,14 49,31 66,50 17,18 28,39 34,61 5,23 6,48 0,74 -5,27 -16,56 -33,87zm-79 -38c10,-19 18,-37 24,-54 5,-17 7,-33 6,-48 -1,-15 -6,-29 -14,-41 -9,-13 -22,-24 -39,-33 -18,-10 -35,-15 -51,-15 -15,1 -30,4 -44,12 -13,7 -26,17 -37,30 -11,14 -21,29 -31,46 -10,19 -18,38 -24,55 -6,17 -8,33 -7,48 1,15 6,29 14,41 9,12 22,23 40,33 18,10 35,15 50,15 16,0 31,-4 44,-12 14,-7 27,-17 38,-31 11,-14 22,-29 31,-46zm256 476c-2,2 -4,3 -5,3 -2,1 -4,0 -7,-1 -3,-2 -7,-4 -12,-8 -5,-4 -11,-10 -18,-17 -7,-6 -11,-11 -15,-15 -3,-4 -6,-8 -7,-11 -1,-3 -2,-5 -2,-8 1,-2 2,-4 3,-6l37 -92c4,-10 8,-20 10,-28 3,-9 4,-17 4,-25 0,-7 -1,-14 -4,-21 -3,-7 -8,-13 -14,-19l-18 -18 -110 111c-1,2 -3,3 -5,3 -2,0 -5,0 -8,-2 -3,-1 -6,-4 -11,-7 -4,-3 -9,-8 -15,-13 -5,-6 -10,-11 -13,-15 -4,-4 -6,-8 -8,-11 -1,-3 -2,-5 -2,-7 1,-2 2,-4 3,-6l260 -265c6,-7 13,-10 19,-9 6,0 12,3 17,7l75 74c8,8 14,14 19,19 5,6 9,10 12,15 11,13 18,26 24,39 5,14 8,27 8,40 0,13 -2,25 -8,38 -5,12 -13,24 -25,36 -9,9 -19,17 -29,23 -11,5 -21,9 -32,10 -11,2 -23,2 -34,-1 -12,-2 -24,-6 -36,-12 3,6 4,13 5,20 1,7 1,14 0,21 -1,8 -2,16 -4,25 -3,8 -6,17 -10,27l-32 82c-3,8 -6,13 -7,17 -2,3 -4,6 -5,7zm117 -274c9,-9 15,-19 17,-30 2,-11 0,-23 -8,-35 -2,-4 -5,-8 -8,-12 -3,-4 -9,-10 -15,-17l-27 -26 -81 83 30 30c9,8 17,14 25,18 9,5 17,7 25,7 7,1 15,0 22,-4 7,-3 14,-7 20,-14zm57 499c-5,3 -9,6 -13,8 -4,2 -7,3 -10,3 -3,1 -5,1 -7,0 -2,0 -3,-2 -4,-3l-114 -171c-4,-6 -5,-12 -4,-18 0,-6 5,-12 12,-17l297 -198c8,-5 15,-6 21,-5 6,2 11,6 15,11l113 170c1,2 1,4 1,5 0,2 -1,4 -2,7 -2,2 -4,4 -7,7 -4,3 -8,6 -13,10 -5,3 -9,5 -13,7 -4,2 -7,3 -10,4 -2,0 -5,0 -6,0 -2,-1 -4,-2 -5,-3l-80 -122 -83 55 68 103c1,1 1,3 1,5 0,2 -1,4 -2,6 -1,2 -4,5 -7,8 -3,2 -7,5 -12,9 -5,3 -9,6 -13,7 -4,2 -7,3 -9,4 -3,0 -5,0 -7,-1 -2,0 -3,-2 -4,-3l-68 -103 -96 64 81 123c1,1 2,3 2,5 0,2 -1,4 -3,6 -1,3 -3,5 -7,8 -3,3 -7,6 -12,9zm180 232c-20,7 -39,10 -57,8 -18,-2 -35,-7 -50,-16 -15,-10 -28,-22 -39,-37 -12,-15 -21,-33 -29,-52 -4,-14 -8,-26 -10,-39 -2,-12 -3,-23 -3,-33 0,-9 0,-18 2,-25 1,-7 2,-12 4,-16 2,-4 5,-7 9,-10 5,-3 11,-6 21,-9 6,-2 11,-4 15,-5 4,-1 8,-2 11,-2 3,0 5,1 7,2 1,1 3,2 3,4 1,3 1,8 0,14 -2,6 -3,14 -4,23 -1,10 -1,21 0,33 0,12 3,25 9,40 3,9 8,17 13,24 5,7 10,12 16,16 6,3 13,5 20,6 7,1 14,-1 22,-3 9,-4 15,-9 20,-16 4,-7 7,-15 9,-24 2,-10 4,-20 4,-31 1,-12 2,-23 3,-35 1,-12 2,-24 5,-36 2,-12 6,-24 12,-34 5,-11 13,-21 23,-30 9,-9 22,-16 38,-22 19,-7 36,-9 53,-8 16,2 31,7 44,15 14,8 26,19 36,33 10,14 19,30 25,48 4,9 6,18 8,28 2,9 4,18 4,27 1,9 1,17 0,24 -1,7 -2,12 -3,15 -1,3 -3,5 -4,6 -1,1 -2,2 -4,4 -3,1 -5,2 -9,4 -3,1 -7,3 -12,5 -6,2 -11,4 -15,5 -4,1 -8,2 -10,2 -3,0 -6,0 -7,-1 -2,-1 -3,-2 -4,-4 -1,-3 0,-7 0,-12 1,-6 2,-13 3,-21 1,-8 1,-17 0,-28 -1,-10 -3,-20 -7,-31 -3,-8 -7,-15 -11,-21 -5,-6 -10,-10 -15,-13 -5,-3 -11,-4 -16,-4 -6,-1 -12,0 -18,3 -8,3 -15,8 -19,15 -5,7 -8,15 -10,25 -2,9 -3,20 -4,31 0,12 -1,23 -2,35 -1,13 -3,25 -5,37 -3,12 -7,23 -12,34 -6,11 -13,21 -23,30 -9,9 -22,16 -37,22z"/>
  <path class="fil3" d="M2453 3152c-14,19 -29,33 -46,42 -17,10 -35,15 -53,16 -19,1 -38,-2 -58,-8 -19,-7 -38,-16 -57,-29 -12,-9 -23,-18 -32,-28 -9,-9 -17,-18 -23,-27 -6,-8 -11,-16 -14,-23 -3,-7 -5,-13 -6,-17 -1,-4 0,-9 2,-14 2,-5 6,-12 12,-21 4,-5 8,-10 11,-14 3,-3 6,-6 8,-8 3,-2 5,-3 7,-3 2,0 4,1 6,2 3,2 6,6 8,13 3,6 6,14 11,22 5,9 12,19 20,29 8,11 19,20 32,30 9,6 18,11 26,14 9,2 17,4 25,3 7,0 14,-2 21,-6 7,-4 12,-10 17,-17 6,-8 9,-16 8,-25 0,-9 -2,-18 -6,-28 -4,-10 -9,-20 -16,-30 -6,-10 -12,-21 -19,-32 -7,-11 -12,-23 -17,-35 -6,-12 -9,-24 -11,-37 -1,-13 -1,-27 2,-41 3,-13 10,-28 21,-43 12,-17 26,-30 41,-39 16,-8 32,-13 49,-14 17,-1 34,1 52,7 17,6 34,15 51,27 8,6 16,12 24,20 8,7 14,14 20,22 6,7 11,14 15,21 4,7 6,12 6,15 1,3 1,6 1,7 -1,2 -1,4 -2,7 -1,2 -3,5 -5,8 -2,4 -5,8 -8,13 -4,5 -7,9 -10,13 -3,3 -5,6 -8,8 -2,2 -4,3 -6,3 -2,1 -4,0 -6,-1 -2,-2 -5,-5 -7,-11 -3,-6 -6,-12 -11,-20 -4,-8 -10,-16 -17,-24 -6,-9 -15,-16 -25,-23 -8,-6 -16,-10 -23,-12 -7,-2 -14,-3 -20,-2 -7,0 -13,2 -18,6 -5,3 -10,8 -14,13 -5,8 -8,16 -7,25 0,9 2,18 6,28 4,10 10,20 16,30 7,11 13,22 20,33 6,11 12,23 18,35 5,12 8,24 10,37 2,13 1,27 -2,41 -3,13 -9,27 -19,42zm86 178c-1,2 -3,4 -5,5 -2,0 -5,1 -9,0 -3,-1 -8,-2 -13,-4 -5,-2 -12,-5 -20,-9 -7,-4 -13,-8 -18,-11 -5,-3 -9,-6 -11,-9 -3,-2 -4,-5 -5,-7 0,-2 0,-5 1,-6l193 -368c1,-2 3,-3 5,-4 2,-1 5,-1 8,-1 4,1 8,2 14,4 5,2 12,5 19,9 8,4 14,8 19,11 5,3 8,6 11,9 2,2 4,5 4,7 1,3 0,5 -1,7l-192 367zm437 149c-1,5 -4,9 -7,12 -3,3 -6,6 -10,8 -4,1 -8,2 -12,2 -5,-1 -9,-1 -13,-3l-36 -12c-7,-3 -14,-6 -19,-9 -5,-3 -9,-8 -12,-13 -3,-6 -6,-13 -8,-21 -2,-8 -4,-18 -5,-31l-37 -230c-2,-13 -4,-28 -6,-43 -1,-16 -2,-31 -3,-45l-1 0c-4,15 -9,31 -13,47 -5,15 -10,31 -16,47l-74 218c-1,2 -2,4 -4,5 -2,1 -4,2 -7,2 -4,0 -8,0 -13,-1 -5,-1 -12,-3 -19,-6 -8,-2 -14,-5 -19,-7 -5,-2 -8,-5 -10,-7 -3,-2 -4,-4 -5,-6 0,-2 0,-4 1,-6l127 -374c4,-10 9,-17 17,-20 7,-3 15,-3 24,0l45 16c8,3 15,6 20,9 5,3 9,7 13,12 3,5 6,10 8,17 1,7 3,16 4,26l29 179c2,11 3,22 5,32 1,11 3,21 4,31 1,11 2,21 3,31 2,10 3,20 4,30l0 0c4,-16 9,-31 14,-48 6,-16 11,-32 16,-47l67 -195c0,-2 2,-4 3,-5 2,-1 5,-2 8,-2 4,0 8,0 13,1 5,1 12,3 19,6 8,2 14,5 19,7 4,2 8,4 10,7 2,2 4,4 4,6 1,2 1,4 0,6l-128 374zm497 -255c-1,7 -2,12 -3,17 -1,4 -3,8 -4,11 -2,2 -3,4 -5,5 -2,1 -3,1 -5,1 -3,-1 -8,-3 -13,-8 -6,-5 -14,-11 -24,-18 -10,-6 -22,-12 -37,-19 -14,-6 -31,-11 -51,-14 -20,-3 -40,-2 -58,2 -18,5 -34,13 -48,25 -15,11 -26,26 -36,43 -9,18 -15,38 -19,61 -4,25 -4,47 0,67 4,20 10,37 20,52 10,14 23,26 39,35 15,9 33,15 53,19 10,1 20,1 30,1 10,-1 19,-3 28,-6l16 -102 -82 -12c-4,-1 -7,-4 -8,-9 -2,-6 -2,-14 0,-26 1,-7 2,-12 3,-16 2,-4 3,-7 5,-10 1,-2 3,-4 4,-5 2,-1 4,-1 6,-1l147 23c3,0 6,1 9,3 3,2 5,4 6,7 2,3 3,6 4,9 1,4 0,8 0,13l-27 173c-1,6 -3,12 -6,17 -3,4 -9,8 -16,9 -8,2 -18,4 -29,5 -11,2 -23,3 -34,3 -12,1 -24,1 -36,0 -12,-1 -24,-2 -36,-4 -34,-5 -65,-15 -91,-29 -25,-14 -47,-32 -63,-54 -16,-22 -27,-47 -33,-76 -5,-29 -6,-60 0,-95 5,-35 15,-66 30,-93 15,-27 34,-48 57,-65 23,-17 49,-28 78,-35 30,-6 62,-6 96,-1 19,3 36,7 51,12 15,5 28,10 39,15 10,6 19,11 26,17 7,5 12,10 15,13 2,4 4,9 4,15 1,5 0,14 -2,25zm385 349c3,8 5,14 5,19 1,5 0,9 -3,11 -2,2 -7,4 -13,4 -6,1 -15,1 -26,1 -12,-1 -21,-1 -27,-1 -7,-1 -11,-2 -15,-3 -3,-1 -6,-2 -7,-4 -1,-2 -2,-4 -3,-7l-28 -89 -165 -3 -29 86c-1,3 -2,5 -4,8 -1,2 -4,3 -7,4 -3,2 -8,2 -14,3 -6,0 -14,0 -24,0 -10,0 -18,-1 -24,-1 -6,-1 -10,-3 -12,-5 -2,-3 -3,-7 -2,-12 0,-4 2,-11 5,-18l142 -388c1,-4 3,-7 5,-9 1,-2 4,-4 8,-5 4,-2 10,-2 17,-3 7,0 16,0 28,0 13,1 24,1 32,1 8,1 14,2 18,3 4,2 8,3 10,6 1,3 3,6 4,10l129 392zm-196 -326l0 0 -64 186 123 2 -59 -188zm532 15c3,25 1,47 -4,66 -5,20 -15,38 -28,52 -13,15 -30,27 -50,36 -21,9 -45,16 -74,19l-37 5 17 139c0,2 0,4 -1,6 -2,2 -4,4 -7,5 -3,2 -8,3 -13,4 -6,2 -13,3 -22,4 -8,1 -15,2 -21,2 -6,0 -11,-1 -14,-1 -4,-1 -6,-2 -8,-4 -1,-2 -2,-4 -2,-6l-47 -392c-1,-11 1,-19 5,-25 5,-6 12,-9 21,-10l103 -13c10,-1 20,-2 30,-2 9,0 20,0 34,1 13,1 27,4 41,10 14,5 27,12 38,22 10,10 19,21 26,35 6,14 11,29 13,47zm-92 17c-2,-15 -6,-27 -13,-36 -6,-10 -14,-16 -22,-20 -9,-4 -17,-6 -26,-6 -9,0 -18,0 -27,1l-38 5 17 148 40 -4c15,-2 26,-6 35,-10 9,-5 17,-12 22,-19 5,-8 9,-17 11,-27 2,-10 2,-20 1,-32zm515 -39c9,35 13,67 12,97 -2,30 -9,58 -21,81 -12,24 -30,45 -52,62 -23,16 -51,29 -85,38 -33,9 -63,12 -90,10 -27,-2 -50,-10 -72,-24 -21,-13 -39,-32 -54,-57 -16,-26 -28,-57 -38,-94 -9,-35 -13,-67 -11,-96 1,-30 8,-57 20,-81 13,-24 30,-44 53,-61 23,-17 51,-30 85,-39 32,-8 61,-11 88,-9 27,2 51,10 72,23 21,13 40,32 55,57 16,25 28,56 38,93zm-90 28c-6,-23 -13,-42 -21,-60 -8,-17 -18,-31 -30,-42 -12,-11 -26,-18 -42,-21 -15,-4 -34,-3 -55,3 -21,5 -38,14 -50,26 -12,11 -21,25 -26,41 -5,15 -7,33 -6,51 1,19 4,38 10,58 6,24 13,44 21,62 9,17 19,31 30,42 12,11 26,18 42,22 15,3 34,2 55,-4 21,-5 38,-14 50,-26 12,-11 21,-25 26,-41 5,-16 7,-33 6,-52 -1,-19 -4,-39 -10,-59zm524 3c1,2 1,4 1,6 0,2 -1,4 -4,6 -3,3 -7,6 -12,9 -6,3 -14,7 -24,12 -9,4 -16,7 -21,9 -5,2 -10,3 -13,4 -4,0 -7,-1 -9,-2 -2,-1 -4,-3 -6,-5l-78 -71c-9,-8 -17,-15 -25,-21 -8,-6 -15,-11 -23,-13 -7,-3 -15,-4 -23,-4 -8,1 -16,3 -24,7l-26 12 72 151c1,2 1,5 1,7 -1,2 -2,5 -5,7 -2,2 -6,5 -11,8 -5,3 -11,7 -19,10 -8,4 -14,7 -20,9 -5,2 -10,3 -13,3 -4,1 -7,0 -9,-1 -2,-1 -3,-2 -4,-4l-171 -361c-4,-9 -5,-16 -2,-23 2,-6 7,-10 14,-14l103 -48c10,-5 19,-9 26,-12 6,-3 13,-5 19,-7 17,-5 33,-8 48,-9 16,0 30,2 43,6 13,5 25,12 35,22 11,10 20,23 27,39 6,13 11,26 12,38 2,13 2,25 -1,37 -2,11 -7,23 -13,33 -7,11 -16,22 -26,31 7,0 15,1 22,3 7,1 14,4 22,8 7,3 15,8 22,14 8,5 16,12 24,19l71 63c7,6 11,11 14,14 3,3 5,6 6,8zm-232 -220c-7,-14 -15,-23 -25,-29 -10,-6 -23,-8 -38,-6 -5,1 -10,3 -15,5 -6,2 -13,5 -22,9l-37 17 54 113 41 -20c11,-5 21,-11 28,-18 7,-7 13,-14 16,-22 3,-8 5,-16 4,-24 0,-8 -2,-17 -6,-25zm484 14c3,6 6,10 8,15 2,3 4,7 4,10 1,3 1,5 0,7 0,2 -1,4 -3,5l-181 126c-6,4 -12,6 -19,5 -7,0 -13,-5 -18,-13l-220 -314c-6,-8 -8,-15 -6,-22 2,-6 6,-12 12,-16l179 -126c2,-1 4,-1 6,-1 2,0 4,1 7,2 2,2 5,4 8,8 3,3 6,8 10,13 4,5 7,10 9,14 2,4 3,7 4,10 0,3 0,5 0,7 -1,2 -2,4 -3,5l-129 90 61 87 109 -75c1,-1 3,-2 5,-2 2,0 5,1 7,2 3,2 5,4 8,8 3,3 7,7 10,12 4,6 7,10 9,14 2,4 3,7 4,10 0,3 0,5 -1,7 0,2 -2,3 -3,5l-108 75 70 102 130 -91c1,-1 3,-1 5,-1 2,0 5,0 7,2 3,2 5,4 8,7 4,4 7,8 11,13z"/>
  <g id="_726743936">
   <path class="fil0" d="M3110 2443l5 3c96,64 452,248 502,310 8,10 50,54 60,58l-46 -72 28 20c4,-7 0,-4 4,-6 11,-7 -7,5 9,-2 -13,-61 -211,-170 -278,-215 -49,-34 -93,-65 -146,-100 -86,-58 -69,-71 -98,-92 -36,-25 -9,3 -29,10l-10 -50 0 -60c-22,8 -9,9 -31,13l-6 -29c-15,-8 0,-4 -19,-13l3 17c11,0 6,1 13,-6l-2 26c-13,-10 -5,2 -21,-5 1,-10 8,-53 -5,-55 9,100 7,189 67,248z"/>
   <path class="fil0" d="M3739 2706c-6,35 64,112 105,99 44,-13 2,-8 -5,-24 31,-16 24,-18 68,-36 35,-14 15,-31 55,-43 38,-10 37,-16 67,-37 16,-11 61,-27 65,-30 10,-12 -16,-10 19,-10l-2 5c59,-44 110,-90 148,-150 27,-43 40,-44 53,-101 8,-36 25,-89 24,-125 -61,16 -68,57 -97,102 -27,40 -49,77 -76,116 -48,68 -30,46 -104,89 -20,12 -67,83 -90,103l-33 -29c-20,22 -15,63 -141,127l-56 -56z"/>
   <path class="fil0" d="M3328 1223c8,-1 16,-3 22,-4 -48,-34 -35,-69 -141,-76 -76,-5 -105,33 -126,92 -21,57 -2,121 9,183 15,78 54,103 27,161 63,-45 35,-87 61,-108 47,-23 30,19 79,20 45,-41 6,-83 21,-140 -22,-15 -40,3 -25,-27 9,-16 21,-19 33,-33l-59 50c-9,-4 7,-52 -36,8 -6,7 -39,52 -44,55 -52,-53 -17,-31 -19,-96 -1,-29 -60,-150 111,-131 78,9 60,44 87,46z"/>
   <path class="fil0" d="M3181 2096c10,6 1,6 6,-31 4,25 5,54 9,76 51,8 41,-4 74,35l0 -30 14 2c-16,-48 -9,-45 -52,-69 -9,-5 -42,-60 -46,-71 4,-33 16,-17 6,-50 -8,-26 -15,-26 -13,-50 4,-41 2,-29 -8,-58 -5,-17 2,-32 0,-59 -5,-41 -18,-70 12,-111 27,-38 2,-18 15,-54 2,-4 17,-25 24,-41 -22,3 -30,9 -49,21 -30,21 -21,10 -23,35 -3,33 -16,-10 -18,38 -1,25 -3,33 -6,58 -5,39 -5,234 0,271 9,13 17,15 34,39 21,29 11,4 21,49z"/>
   <path class="fil0" d="M4113 1352l8 39c-16,6 -29,1 -35,23 -10,33 8,5 9,39 2,24 5,67 16,92 39,-10 25,-61 52,-72 17,22 -4,41 0,79 3,27 13,51 19,73 8,-12 7,11 3,-19 -3,-17 -21,-29 -6,-66 11,-29 20,-43 32,-77 11,-32 28,-38 37,-71 7,-25 8,-81 1,-107 -7,-27 -28,-52 -42,-68 -25,-28 -43,-22 -90,-16 -54,8 -121,31 -149,78 44,-15 116,-76 203,-35 92,44 40,124 36,127 -28,25 -10,-3 -30,36l-22 -60 -16 41c-5,-7 -7,-15 -11,-22l-15 -14z"/>
   <path class="fil0" d="M4003 2173c-8,19 -27,-4 -51,15 -26,20 -3,29 -19,44 3,26 2,32 -19,35l0 16 9 8 4 15 29 -46c6,-14 2,-9 12,-14 3,-7 0,-5 9,-13 12,-11 8,-7 20,-9 6,-7 1,-5 12,-9 13,-5 9,-3 21,-2 10,-8 -7,-4 17,-5 4,0 15,2 21,2 -7,-20 -6,-16 1,-34 6,-2 12,-7 24,-6 39,3 15,2 23,13l8 -6c-5,-9 -11,-27 1,-39 -4,-45 11,-56 21,-91 16,-7 4,12 20,-7 12,-15 -10,-43 0,-86 17,-35 6,7 14,-25 4,-14 9,-21 12,-35 6,-30 -2,-62 -11,-87l-8 -71c-2,-21 -5,-20 -8,-40 -4,-26 8,-21 -20,-31 -12,1 -1,-8 -11,13 -6,12 -10,-15 -3,20 6,28 9,11 12,53 3,46 -3,60 17,99 -30,28 -14,44 -19,63 -5,21 -2,-3 -12,23 -7,19 0,60 -12,87 -6,14 -5,8 -12,10 -2,23 -2,28 -11,45 -17,36 1,5 -7,37l-35 -9 17 24c-24,16 -47,41 -66,43z"/>
   <path class="fil0" d="M3487 2416l-36 27c9,39 76,66 120,78 70,18 77,50 129,73 11,-32 14,-36 52,-43 71,-14 151,-32 103,-134 -9,21 12,2 -12,15l-6 -13c4,9 0,-19 2,8l-2 5c6,15 4,-3 10,21 -44,53 -123,26 -154,69 -10,-8 -6,-11 -12,-26 -30,8 -5,9 -25,18 -21,-19 -55,-32 -92,-41 -15,-4 -73,-10 -55,-61 -2,1 -4,4 -5,5l-8 6c-12,-5 -11,7 -9,-7z"/>
   <path class="fil0" d="M3333 2224l10 13 38 30c47,33 69,87 122,121l-16 28c-2,14 -3,2 9,7l8 -6c1,-1 3,-4 5,-5 8,-24 7,-33 64,-50 79,-23 121,-18 195,17 15,7 29,9 38,20 17,20 1,22 31,33l2 -5c-2,-27 2,1 -2,-8l6 13c24,-13 3,6 12,-15l-29 -19c25,-40 66,-50 82,-75 -15,-4 -1,5 -11,-7 -16,3 -9,3 -31,18 -10,7 -18,13 -29,20 -23,12 -39,24 -65,10 -11,-7 -18,-12 -30,-19 -25,-16 -72,-27 -66,-65 6,-27 -3,-13 13,-20 -1,0 -3,-1 -4,-1l-24 -21 -2 17c-24,0 -11,3 -23,-15 3,9 5,11 10,19 36,41 -4,55 -39,68 -70,25 -51,46 -138,4 -25,-12 -83,-78 -91,-114 -16,-18 -17,-48 -35,-55 -5,6 -1,-12 -5,14 0,7 0,13 0,20 -1,14 -2,18 -5,28z"/>
   <path class="fil0" d="M3299 2068c-3,-148 -31,-79 -48,-205 -18,-142 31,-175 18,-211 -10,-3 10,-8 -16,8 -27,18 -49,25 -48,65 1,22 -4,47 0,64 4,19 5,4 9,27 2,13 1,24 3,36 9,54 39,33 32,117 -4,48 9,91 50,99z"/>
   <path class="fil0" d="M3545 1277l-31 -3 35 -9c-6,12 -1,1 -4,12zm-217 -54c10,13 24,33 37,42 54,40 54,21 77,18 36,-4 8,12 74,4l29 -10c16,-1 17,-3 33,3 18,6 19,14 34,3 -10,-21 -9,-5 -28,-20 43,0 37,4 51,5l83 -1 7 21 13 6 0 -12 -7 -13c36,1 68,4 101,18 28,13 56,47 89,25 -37,-22 -34,-28 -55,-36 -18,-7 -49,-13 -70,-18 -89,-21 -243,-14 -332,6 -89,21 -46,11 -114,-45 -6,1 -14,3 -22,4z"/>
   <path class="fil0" d="M3431 1763l1 0c10,4 4,0 12,5l12 14 -27 -6 18 14c40,30 39,26 35,61 -8,56 -8,61 -24,112 98,-51 83,-183 33,-247 -26,-33 -60,-13 -104,-19l53 12c0,11 0,24 7,34l20 -27c8,5 1,0 8,6 3,2 7,7 9,9 -2,16 -10,24 -18,35l-35 -3z"/>
   <path class="fil0" d="M3908 1790c-15,-3 -13,6 -12,-7 -13,-1 -31,4 -44,-3 -9,-5 -21,-20 -10,-29l-19 0 8 -21c-26,22 -35,110 -34,135 3,65 9,89 66,106 -7,-36 -44,-127 5,-159 14,-8 25,-16 40,-22z"/>
   <path class="fil0" d="M3879 2534c31,-7 116,-28 128,-54 42,-91 37,-3 34,-137 -16,7 -13,5 -21,26 -24,60 -35,52 -99,118 -9,9 -14,14 -22,22l-14 18c-1,1 -3,4 -3,3 0,0 -2,3 -3,4z"/>
   <path class="fil0" d="M4278 2017c59,-62 76,-246 -54,-301 9,12 18,19 23,30 14,33 -10,15 29,70 15,21 2,16 2,34 0,20 28,33 13,79 -13,35 -23,40 -13,88z"/>
   <path class="fil0" d="M4040 2001c-14,-11 -12,-7 -21,-27l-23 6c-11,4 -15,8 -31,6 -10,-17 -1,-13 -18,-25 8,31 8,34 28,53 1,-1 2,-3 3,-2l11 -10c7,-6 6,-4 11,-12 9,9 12,14 26,19l6 1c1,1 2,1 3,1l6 2c-6,28 -14,17 -16,35 -3,25 -2,-14 0,8 4,27 28,11 30,-13 3,-26 -6,-27 7,-52 16,-32 10,-64 18,-101 6,-26 19,-75 19,-100 1,-18 -6,-29 -13,-46 -4,-10 -3,-11 -9,-20l-14 -21c22,101 1,207 -23,298z"/>
   <path class="fil0" d="M3432 2462c5,-31 19,-50 21,-75 -39,1 -91,2 -130,0 -43,-3 -61,-17 -100,-25 7,14 24,34 43,39 17,4 13,-3 30,1 12,3 10,8 24,14 25,10 31,1 60,19 15,9 34,24 52,27z"/>
   <path class="fil0" d="M3650 1347l7 -31c-31,13 -42,34 -89,63 -19,11 -16,9 -6,30 41,3 56,-49 118,-37 5,17 3,16 13,30 22,1 29,0 42,-14 0,-27 -40,-32 -51,-78l-15 22c-4,4 -14,11 -19,15z"/>
   <path class="fil0" d="M4111 2630l2 -5c-35,0 -9,-2 -19,10 4,3 29,-14 -9,42l-84 103c-14,17 -41,56 -57,66l-64 63c70,-17 105,-71 137,-119 31,-47 78,-63 94,-160z"/>
   <path class="fil0" d="M3351 1638l-4 29c21,-12 14,-5 38,-12 24,-8 6,-11 32,-16 18,15 0,20 33,21 0,-13 2,-16 -22,-37l41 -56c16,-17 39,-38 44,-59 -30,10 -14,15 -43,30 -47,23 -9,46 -66,77 -18,10 -28,7 -47,18l-6 5z"/>
   <path class="fil0" d="M3557 2143c12,10 7,6 27,10 10,2 12,2 19,5 19,7 23,11 46,14l22 -7 57 2c6,-7 9,-5 30,-5 25,1 22,-4 28,10l-51 12c-9,16 -14,8 -25,24 -22,29 17,5 -6,27l1 10c14,-11 18,-27 34,-33l6 -5c1,0 7,-4 9,-5 8,-4 13,-7 20,-11l19 -14 20 -30c4,-20 8,-11 -2,-24 -13,7 -12,21 -17,30 -19,4 -41,-4 -63,1 -45,10 -22,2 -57,2 -37,-1 -13,16 -50,-4 -20,-10 -43,-6 -67,-9z"/>
   <path class="fil0" d="M3288 1947c12,58 52,-11 74,153 16,-24 -2,-21 25,-43 18,-15 18,-24 16,-50 -34,16 -5,27 -40,39 -12,-31 -1,-46 -22,-76 -21,-31 -18,-48 -53,-23z"/>
   <path class="fil0" d="M3395 1871c-22,-17 -37,-3 -63,-45 -24,-38 -20,-28 -23,-82 -8,8 -1,-2 -8,9 -2,3 -6,12 -7,15 -2,6 -5,21 -7,27 -13,53 39,65 55,76 27,17 22,6 53,0z"/>
   <path class="fil0" d="M3831 1730l-8 21 19 0c9,-18 4,-15 19,-25l4 7c10,24 -3,9 11,23 1,-1 2,-3 2,-3 1,1 2,-2 2,-3 1,-1 3,-5 3,-7 5,-10 2,-8 8,-17 13,1 20,3 28,7 3,23 -10,25 -23,50 -1,13 -3,4 12,7 28,-14 22,-23 33,-54l24 -5 0 -9 -14 -8c-9,15 1,15 -27,10 -18,-4 -30,0 -40,-7l22 -10c-15,-9 -28,-8 -46,-1 -15,6 -23,13 -29,24z"/>
   <path class="fil0" d="M3429 1776l27 6 -12 -14c-8,-5 -2,-1 -12,-5l-1 0c-14,-23 -17,-20 -22,-50 -28,-6 -27,-12 -67,-31 -2,-25 1,-34 8,-55 -25,12 -20,16 -25,45 -4,23 -17,24 -28,46 119,-49 82,55 132,58z"/>
   <path class="fil0" d="M3612 1620c-30,7 -14,-11 -37,8 -22,17 -21,6 -25,35 17,-3 18,-5 30,-15 24,-19 13,-7 37,-14 14,-4 17,-12 27,-22 15,-15 13,-8 30,-18l5 -82c-4,7 -3,3 -8,15 -2,4 -2,9 -4,15l-55 78z"/>
   <path class="fil0" d="M3531 2144l10 18 6 16c20,10 52,32 66,49l8 0 20 2c-6,-23 -15,-33 -41,-49 -7,-5 -20,-11 -29,-15 -14,-7 -9,-4 -21,-23 -14,-26 5,-28 -26,-36 -3,24 -3,19 7,38z"/>
   <path class="fil0" d="M3272 2192l2 9c12,5 18,8 30,12 15,9 13,10 29,11 3,-10 4,-14 5,-28 0,-7 0,-13 0,-20 4,-26 0,-8 5,-14l-3 -8 -51 2 -10 -2c0,3 1,20 0,22 -1,14 0,8 -7,16z"/>
   <path class="fil0" d="M4277 2205c4,-5 8,-11 12,-17 18,-32 23,-109 25,-145 -10,19 -9,17 -25,27 0,14 1,67 -4,76 -24,25 -23,38 -25,77l17 -18z"/>
   <path class="fil0" d="M3528 2558c-22,-8 -30,-17 -48,-9 13,34 -9,-2 43,29l79 50c29,18 15,18 35,25 -2,-24 -46,-54 -65,-69 -18,-16 -18,-16 -44,-26z"/>
   <path class="fil0" d="M3016 1797c17,-13 9,-7 23,-33 30,-53 33,-66 48,-130 -1,1 -3,1 -3,4 -1,2 -2,2 -3,3 -3,4 -4,7 -7,10l-34 54c-10,20 -21,67 -24,92z"/>
   <path class="fil0" d="M3342 1556l-35 6c-4,28 -12,40 -19,62 29,1 19,5 31,-11 27,-37 24,-15 35,-49 4,-11 7,-23 10,-36 -23,8 -20,2 -22,28z"/>
   <path class="fil0" d="M3441 1426l58 -12c2,-24 19,-32 41,-48 17,-14 8,0 13,-22 -17,7 -3,0 -17,8l-48 26c-27,13 -43,17 -47,48z"/>
   <path class="fil0" d="M3446 1502c30,-15 52,-8 81,-26 34,-20 13,-15 52,-26l20 -10c-33,-11 -91,16 -121,31 -6,4 -13,7 -18,12 -3,2 -6,6 -7,8 -1,1 -2,2 -3,3 0,1 -1,3 -2,4 -1,1 -2,3 -2,4z"/>
   <path class="fil0" d="M3745 1298l-17 -8 -17 -5c7,13 -1,3 10,14 36,33 70,44 123,44 -5,-22 11,-11 -45,-29 -17,-6 -34,-12 -54,-16z"/>
   <path class="fil0" d="M3458 1305c2,1 3,1 4,3 1,2 3,2 4,3l25 11c28,9 55,5 85,1 28,-3 26,-3 30,-23 -18,-5 -44,6 -71,6 -29,-1 -50,-1 -77,-1z"/>
   <path class="fil0" d="M3742 2842c17,35 16,-12 44,61l42 64c-3,-72 -39,-88 -49,-125l-37 0z"/>
   <path class="fil0" d="M4046 1670c-9,-23 -21,-35 -33,-65 -11,-25 -20,-41 -45,-53 -1,24 10,44 28,69 17,25 19,36 50,49z"/>
   <path class="fil0" d="M3789 1423c62,1 30,16 74,28 -7,-38 -28,-41 -58,-68l-20 -19 4 59z"/>
   <path class="fil0" d="M3775 1457l46 38c16,13 39,24 64,27 -10,-23 -3,-9 -21,-25 -21,-20 -55,-50 -89,-40z"/>
   <path class="fil0" d="M3547 1551c20,0 15,-4 23,-7 12,-4 4,1 26,6 4,-8 8,-17 13,-26l10 -15c1,-1 2,-3 2,-4 1,-1 2,-3 3,-4 0,-1 1,-2 2,-4 -22,6 -31,16 -52,18 -6,1 -41,-4 -27,36z"/>
   <path class="fil0" d="M3444 2227l29 11c13,-5 0,-38 6,-57 -16,-9 3,8 -16,0 -15,-7 8,0 -8,-5 3,31 2,3 -9,12l-7 -12c-11,15 -8,24 -6,44l11 7z"/>
   <path class="fil0" d="M3181 2096l-6 10c9,11 5,-3 9,21 2,13 2,19 5,33 -14,-14 -3,3 -10,-13 0,-1 -1,-12 -1,-13l-1 26 13 -4c32,-7 41,-6 58,15l8 8 4 5 12 8c7,-8 6,-2 7,-16 1,-2 0,-19 0,-22l10 2 -5 -8 -14 -2 0 30c-33,-39 -23,-27 -74,-35 -4,-22 -5,-51 -9,-76 -5,37 4,37 -6,31z"/>
   <path class="fil0" d="M3890 2234c6,-7 3,-6 8,-11 11,-11 2,-3 15,-11l11 -1 1 -41 -11 2c-2,1 -4,2 -7,6 0,1 -1,3 -2,3l-24 -5c5,31 -2,30 1,59l8 -1z"/>
   <path class="fil0" d="M3848 1542c7,29 -10,16 17,25 1,28 9,42 29,48 6,-19 1,-23 -2,-42l-5 -2c-26,-16 -13,-43 -66,-43 6,6 -1,2 13,9 4,2 11,4 14,5z"/>
   <path class="fil0" d="M3208 2174l18 -1 30 6 -8 -8c-17,-21 -26,-22 -58,-15l-13 4 1 -26c0,1 1,12 1,13 7,16 -4,-1 10,13 -3,-14 -3,-20 -5,-33 -4,-24 0,-10 -9,-21l-8 61c7,1 19,0 23,1 26,2 11,-3 18,6z"/>
   <path class="fil0" d="M3677 1619c22,-7 18,-12 34,-20l6 37c16,-10 18,-30 18,-50 -40,-14 -50,-14 -58,33z"/>
   <path class="fil0" d="M2972 2010l33 -57 -15 -2 18 -47c-18,1 -14,-18 -32,44 -7,25 -8,36 -4,62z"/>
   <path class="fil0" d="M4031 1582c4,14 16,23 33,32 5,-6 3,-1 9,-12 3,-5 5,-13 8,-19l-34 -21 -22 -2 6 22z"/>
   <path class="fil0" d="M3043 2195c13,2 6,45 5,55 16,7 8,-5 21,5l2 -26c-7,7 -2,6 -13,6l-3 -17c19,9 4,5 19,13l10 -6c-4,-17 -1,-8 -8,-19 -8,-11 -1,4 -10,-10 -2,-3 -7,-17 -12,-26 0,-2 -3,-10 -5,-12l-6 37z"/>
   <path class="fil0" d="M3649 2172c-6,22 7,37 -8,57l-20 -2c15,-2 13,-6 13,3 11,0 1,-1 2,10 12,18 -1,15 23,15l2 -17c-2,-11 7,-58 10,-73l-22 7z"/>
   <path class="fil0" d="M3704 2235c23,-22 -16,2 6,-27 11,-16 16,-8 25,-24l9 -10c-8,-6 9,-7 -16,-7 -9,15 3,2 -15,8 -28,9 -19,14 -21,66 3,-10 -1,0 12,-6z"/>
   <path class="fil0" d="M3965 1722c61,3 19,7 53,18 3,-28 -11,-25 -20,-51 -9,-27 -3,-33 -23,-55 -1,29 14,44 17,79 -23,0 -18,-2 -27,9z"/>
   <path class="fil0" d="M4068 2210c12,-1 17,0 28,-7 7,-4 3,-4 11,-9 8,-6 0,-1 9,-5l0 -6c-8,-11 16,-10 -23,-13 -12,-1 -18,4 -24,6 -7,18 -8,14 -1,34z"/>
   <path class="fil0" d="M3883 1672c18,-1 29,-10 43,-20 13,10 16,9 36,12 -6,-12 -6,-15 -18,-25 -27,-21 -48,5 -61,33z"/>
   <path class="fil0" d="M3454 2025c42,-8 36,-22 51,-63l4 -23c0,-1 -1,-3 -2,-4 0,-1 -2,-2 -3,-4 -6,12 -15,31 -23,48l-27 46z"/>
   <path class="fil0" d="M3659 2762l33 38c12,10 18,21 35,26 -3,-15 -7,-18 -23,-39 -5,-7 -11,-15 -15,-19 0,0 -7,-7 -8,-7 -6,-5 -4,-3 -9,-7 -16,7 2,-5 -9,2 -4,2 0,-1 -4,6z"/>
   <path class="fil0" d="M3715 1472c-7,-27 -22,-48 -31,-74 -22,31 -7,67 31,74z"/>
   <path class="fil0" d="M3343 1504l16 -8c11,-6 10,-4 19,-11 11,-8 20,-23 26,-38 -57,15 -24,17 -63,40l2 17z"/>
   <path class="fil0" d="M3738 1540c15,-5 6,-2 10,-4 0,-1 3,-3 4,-3 37,29 8,15 30,32 11,-15 6,-12 13,-38 -32,1 -31,-7 -59,-10l2 23z"/>
   <path class="fil0" d="M3340 2154l3 8c18,7 19,37 35,55 -1,-10 -1,-21 -2,-31 0,-2 0,-15 0,-15 4,-23 2,-10 6,-15l-2 -13c-1,1 -3,2 -3,3l-37 8z"/>
   <path class="fil0" d="M3538 1932c24,-9 32,-11 34,-37 2,-19 4,-47 2,-65 -9,14 -3,28 -13,51 -9,22 -17,20 -23,51z"/>
   <path class="fil0" d="M3849 2011c-5,-41 1,-1 -61,-63 -20,-19 14,13 -5,-5l-6 -5c15,53 -2,23 64,68l8 5z"/>
   <path class="fil0" d="M4031 1582l-6 -22 22 2 -25 -11c0,-25 1,-18 -12,-32l-32 1c1,3 2,3 3,5 3,11 17,7 27,24 13,21 3,22 23,33z"/>
   <path class="fil0" d="M3343 2237l-10 -13c-16,-1 -14,-2 -29,-11l0 28c14,14 19,16 40,11 5,-9 14,13 -1,-15z"/>
   <path class="fil0" d="M3074 2231l6 29c22,-4 9,-5 31,-13 8,-7 7,-2 6,-14 -11,-12 -19,-13 -33,-8l-10 6z"/>
   <path class="fil0" d="M3403 1810l30 0 -23 -9c-14,-15 8,1 -28,-39 -15,0 -18,-2 -29,4 5,6 -4,0 11,9 37,21 16,18 39,35z"/>
   <path class="fil0" d="M3526 2073c20,-4 17,-11 11,-31 -8,-25 -8,-25 -29,-31 12,43 2,-14 11,46 3,19 1,9 7,16z"/>
   <path class="fil0" d="M3900 1823c5,4 -11,13 22,4 9,-2 14,-5 20,-10l25 -42c-26,7 -11,12 -32,25 -17,11 -23,15 -35,23z"/>
   <path class="fil0" d="M3382 2156c7,8 1,3 9,9 22,7 14,10 37,18 0,-46 -11,-21 -28,-40l-20 0 2 13z"/>
   <path class="fil0" d="M3621 2227l-8 0 -38 -3 3 23c15,5 28,4 42,-2 4,-9 2,-3 1,-18z"/>
   <path class="fil0" d="M4028 1914l-15 5c10,22 5,22 23,30 13,-20 8,-6 2,-29 -4,-15 -3,-27 -8,-40 -8,9 -9,-21 -2,34z"/>
   <path class="fil0" d="M3347 1962c23,-8 30,-13 33,-39 -20,-3 -16,-8 -26,2 -9,9 -8,21 -7,37z"/>
   <path class="fil0" d="M3922 2234c-16,5 -12,-1 -25,12 17,13 5,9 17,21 21,-3 22,-9 19,-35l-2 -12c-7,28 0,2 -9,14z"/>
   <path class="fil0" d="M3343 1919l12 -35c-49,-2 -51,22 -12,35z"/>
   <path class="fil0" d="M3715 2687c-8,-4 -13,0 -14,0 -5,5 -7,-5 -2,16 4,12 17,23 26,28 3,-29 3,-38 -10,-44z"/>
   <path class="fil0" d="M3837 1300c-25,-5 -18,-11 -51,-9 5,20 4,18 25,23 22,4 20,-4 26,-14z"/>
   <path class="fil0" d="M3613 1456l24 -1c6,-18 5,-24 5,-43 -12,7 -4,0 -12,8 -1,1 -7,8 -8,9 -14,18 -9,0 -9,27z"/>
   <path class="fil0" d="M3940 2053l12 47c13,-12 15,-19 20,-38 -1,0 -3,-2 -3,-1l-29 -8z"/>
   <path class="fil0" d="M4005 1860c-16,0 -34,5 -46,16 10,7 14,12 31,14l15 -30z"/>
   <path class="fil0" d="M3448 1944l-9 -1c-16,26 -23,19 -24,51 13,-6 16,-5 22,-21 5,-11 6,-17 11,-29z"/>
   <path class="fil0" d="M3872 1405l28 -3c1,0 2,-1 4,-1 -14,-20 -27,-17 -51,-19 10,7 10,11 19,23z"/>
   <path class="fil0" d="M3890 2234c-2,20 -3,7 7,12 13,-13 9,-7 25,-12l-9 -22c-13,8 -4,0 -15,11 -5,5 -2,4 -8,11z"/>
   <path class="fil0" d="M3968 2246l31 1c5,-19 8,-13 -2,-23 -12,2 -8,-2 -20,9 -9,8 -6,6 -9,13z"/>
   <path class="fil0" d="M3897 2316c10,12 -4,3 11,7 10,-3 1,3 10,-6 0,0 8,-9 9,-11l-4 -15c-19,8 -16,11 -26,25z"/>
   <path class="fil0" d="M4116 2183l0 6 24 -10c-6,-16 -3,-9 -16,-23l1 -18c-12,12 -6,30 -1,39l-8 6z"/>
   <path class="fil0" d="M3565 1789c1,-58 -2,-43 -22,-49l14 33c1,2 3,7 4,8l4 8z"/>
   <path class="fil0" d="M3465 2253l9 0 -1 -15 -29 -11 -4 15c5,1 7,0 12,2 11,4 7,1 13,9z"/>
   <path class="fil0" d="M3778 1298c-3,-23 -4,-21 -27,-24 5,22 4,22 27,24z"/>
   <path class="fil0" d="M3868 1366c17,4 18,6 31,-1 -7,-15 7,-10 -18,-11l-14 -2 1 14z"/>
   <path class="fil0" d="M3430 1820l-18 0 -13 7c2,1 -8,16 21,8 20,-6 8,-6 10,-15z"/>
   <path class="fil0" d="M3947 1491c-12,-27 -15,-25 -29,-24 3,14 8,21 29,24z"/>
   <path class="fil0" d="M4005 1860c28,2 27,-1 22,-27l-22 27z"/>
   <path class="fil0" d="M3290 1535c6,-2 11,3 17,-8 9,-18 -3,-14 -4,-14 -15,6 -9,-10 -13,22z"/>
   <path class="fil0" d="M3432 2462c3,17 9,38 21,51 -5,-22 -7,-41 -21,-51z"/>
   <path class="fil0" d="M3964 1922l-1 6c0,1 0,3 0,3 0,1 1,3 2,3 1,4 8,11 10,13 10,-15 3,-26 -11,-25z"/>
   <path class="fil0" d="M3402 2136c8,-6 3,6 8,-7 7,-17 3,-4 4,-22l-10 -3 -2 32z"/>
   <path class="fil0" d="M3468 1334l-34 -2c23,13 22,27 34,2z"/>
   <path class="fil0" d="M3518 1719c-4,-18 -7,-15 -23,-19 5,15 5,17 23,19z"/>
   <path class="fil0" d="M3355 1749c2,-16 4,-11 0,-24 -9,5 -13,-1 -12,11 1,16 7,9 12,13z"/>
   <path class="fil0" d="M4264 2645c16,-7 3,9 14,-37 -7,8 -5,1 -10,15 -3,7 -3,14 -4,22z"/>
   <path class="fil0" d="M3422 1677c-5,-12 -8,-12 -21,-24 1,21 3,22 21,24z"/>
   <path class="fil0" d="M3788 1648l-4 -31c-2,1 -25,-2 4,31z"/>
   <path class="fil0" d="M3561 1738c-2,-10 4,-6 -11,-24 0,0 -22,3 11,24z"/>
   <path class="fil0" d="M3925 1943c8,-29 -6,-22 -14,-23l12 20c0,1 2,2 2,3z"/>
   <path class="fil0" d="M3545 1277c3,-11 -2,0 4,-12l-35 9 31 3z"/>
   <path class="fil0" d="M4019 1806c6,-7 8,14 5,-19 -12,8 -17,7 -5,19z"/>
   <path class="fil0" d="M3806 1727c26,-7 16,-1 21,-15 -18,5 -13,-1 -21,15z"/>
   <path class="fil0" d="M3776 1669c-7,-19 6,-8 -17,-19 1,14 3,12 17,19z"/>
   <path class="fil0" d="M3857 2256c-3,18 -3,5 7,12 9,-14 4,-1 6,-17l-13 5z"/>
   <path class="fil0" d="M3921 1312c24,-1 19,-1 26,-17l-26 17z"/>
   <path class="fil0" d="M4127 1651c-2,-18 2,-10 -14,-14 6,17 -8,8 14,14z"/>
   <path class="fil0" d="M3439 2176l7 12 1 -22c-15,3 -7,-5 -8,10z"/>
   <path class="fil0" d="M3392 1916c17,-5 8,1 15,-13 -13,2 -13,-2 -15,13z"/>
   <path class="fil0" d="M3849 2207c25,0 7,2 14,-6 -1,-11 1,0 -9,-5l-5 11z"/>
   <path class="fil0" d="M3782 1768c15,-9 6,5 12,-19 -13,9 -9,4 -12,19z"/>
   <path class="fil0" d="M3916 1683c22,-3 9,3 16,-12 -10,4 -15,3 -16,12z"/>
   <path class="fil0" d="M3915 2015c1,16 22,-10 6,-4 -7,2 -8,-16 -6,4z"/>
   <path class="fil0" d="M3949 1294c15,-7 1,2 8,-4 8,-8 3,-2 9,-11 -13,4 -15,2 -17,15z"/>
   <path class="fil0" d="M3816 1601l-11 -23c1,33 2,16 11,23z"/>
   <path class="fil0" d="M4105 1630c-5,-13 0,-7 -11,-12 2,16 -12,10 11,12z"/>
   <path class="fil0" d="M3748 2917c-5,-23 -5,-11 -10,-15l4 10c0,9 -2,7 6,5z"/>
   <path class="fil0" d="M3536 2260c0,5 13,19 7,1 -3,-11 -8,-3 -7,-1z"/>
   <path class="fil0" d="M3422 1906c14,-5 6,1 11,-13 -11,5 -10,0 -11,13z"/>
   <path class="fil0" d="M3739 2706c-5,-10 9,-5 -12,-11 8,27 -1,4 12,11z"/>
   <path class="fil0" d="M3887 1959c0,5 13,20 7,1 -3,-11 -7,-3 -7,-1z"/>
   <path class="fil0" d="M3430 1820l16 -5 -1 -10c-5,5 -4,4 -9,9 -1,1 -2,4 -3,3 0,-1 -2,2 -3,3z"/>
   <path class="fil0" d="M3713 2867c9,25 2,8 13,17 -4,-11 -1,-5 -7,-12l-6 -5z"/>
   <path class="fil0" d="M3980 1756c22,14 8,2 13,0 -1,-1 -3,-4 -4,-3l-6 0c-1,1 -2,2 -3,3z"/>
   <path class="fil0" d="M3944 1924c21,-6 6,1 12,-11 -24,8 -1,-2 -12,11z"/>
   <path class="fil0" d="M3430 2273l-8 -2c-5,22 -3,4 5,10l3 -8z"/>
   <path class="fil0" d="M3713 2867c-8,-23 -2,-8 -12,-16 4,11 1,4 6,12l6 4z"/>
   <path class="fil0" d="M3952 1882c1,-11 4,-3 -9,-10 5,13 -2,13 9,10z"/>
   <path class="fil0" d="M3940 2053c-6,-21 -5,-11 -11,-17 4,12 -1,3 3,9 6,8 4,4 8,8z"/>
   <path class="fil0" d="M3821 2032c-8,8 -4,12 3,3 7,-9 5,-11 -3,-3z"/>
   <polygon class="fil0" points="3725,1288 3728,1290 3745,1298 3738,1282 3738,1294 "/>
   <path class="fil0" d="M3917 2000l-11 -16c4,19 -6,11 11,16z"/>
   <path class="fil0" d="M3738 2902c-8,-23 -3,-9 -12,-16 3,12 0,5 5,12 14,21 -15,-7 7,4z"/>
   <path class="fil0" d="M3748 2917c8,23 2,8 12,15 -4,-11 -1,-6 -6,-12 -14,-20 17,8 -6,-3z"/>
   <path class="fil0" d="M3782 1801c1,-1 3,-4 3,-3l0 -7c0,0 -2,-2 -3,-3 -4,8 -11,-13 0,13z"/>
   <path class="fil0" d="M3480 2294c0,14 16,-2 6,-2 -12,1 -6,-12 -6,2z"/>
   <path class="fil0" d="M3868 1366l-1 -14 14 2c-1,0 -3,-3 -4,-2l-15 -1 6 15z"/>
   <polygon class="fil0" points="3914,2172 3925,2170 3918,2162 "/>
   <path class="fil0" d="M3952 1504c-1,16 14,-3 5,-2 -10,1 -4,-6 -5,2z"/>
   <path class="fil0" d="M3343 1504c-8,4 -4,-11 -10,10l10 -10z"/>
   <path class="fil0" d="M4113 1352l-8 -14c6,30 -3,6 8,14z"/>
   <path class="fil0" d="M3686 2831c10,12 -1,6 15,18l-15 -18z"/>
   <path class="fil0" d="M3099 1605l7 -12c-6,8 -3,1 -7,12z"/>
   <polygon class="fil0" points="3439,1943 3448,1944 "/>
  </g>
 </g>
</svg>
